<?xml version="1.0" encoding="UTF-8"?>
<svg version="1.1" xmlns="http://www.w3.org/2000/svg" width="512" height="512">
<path d="M0 0 C1.26306831 -0.00445784 2.52613662 -0.00891569 3.82747972 -0.01350862 C5.22155278 -0.01341933 6.61562583 -0.01322951 8.00969887 -0.01294994 C9.49665282 -0.01625141 10.98360588 -0.01997757 12.47055781 -0.02409142 C16.55348298 -0.03408761 20.63639345 -0.03782438 24.71932912 -0.04048073 C29.12448514 -0.04439092 33.5296296 -0.05396883 37.93477821 -0.0626936 C48.57241601 -0.0824389 59.21005472 -0.09252224 69.84770626 -0.10142139 C74.86148861 -0.10580787 79.87526991 -0.11117379 84.88905144 -0.11641026 C101.56387487 -0.13342139 118.23869766 -0.14791418 134.91352844 -0.155159 C139.23893039 -0.15706878 143.56433234 -0.15898913 147.88973427 -0.16094494 C149.50225313 -0.16167055 149.50225313 -0.16167055 151.14734812 -0.16241082 C168.55054634 -0.17070598 185.9536757 -0.19603473 203.35684387 -0.22852562 C221.23842869 -0.26163651 239.11997856 -0.27961144 257.00159419 -0.28280324 C267.03567438 -0.28496471 277.06965421 -0.29366009 287.10370445 -0.31926441 C295.65164951 -0.3410266 304.19946981 -0.3489948 312.74743943 -0.33929763 C317.10388409 -0.33476874 321.46007164 -0.33655632 325.81648064 -0.35605907 C329.8153713 -0.37380557 333.81381949 -0.37260123 337.8127156 -0.35716178 C339.24888686 -0.35480297 340.68508971 -0.35901814 342.121213 -0.37099043 C363.34983091 -0.53680586 381.83986999 6.37949511 398.65291786 19.13422108 C399.32967567 19.63695545 400.00643349 20.13968983 400.70369911 20.65765858 C415.08460439 32.09626369 426.02389139 51.09535362 429.65291786 69.13422108 C429.74836999 71.22683312 429.78737576 73.32224833 429.79272556 75.41702938 C429.7984168 76.71668294 429.80410805 78.0163365 429.80997175 79.3553735 C429.81126438 80.80111598 429.8124524 82.24685856 429.81354713 83.6926012 C429.81827835 85.22590161 429.82342929 86.75920076 429.82896477 88.29249847 C429.84287387 92.51289578 429.85045538 96.73328447 429.85693777 100.95369887 C429.86330887 104.57230262 429.87337913 108.1908922 429.88349842 111.80948712 C429.9168299 123.73505766 429.93834903 135.66063682 429.95669827 147.58623868 C429.96149422 150.69326746 429.96647746 153.8002959 429.9715035 156.90732431 C430.00248372 176.21179646 430.02916291 195.51627163 430.04592228 214.82076168 C430.04987165 219.29292398 430.05387465 223.76508623 430.05794716 228.23724842 C430.05895552 229.34875475 430.05996388 230.46026108 430.0610028 231.60544942 C430.07798994 249.58944654 430.11907603 267.57330558 430.16997015 285.55723538 C430.22182489 304.03315124 430.2508752 322.50899627 430.25811917 340.98498428 C430.26277234 351.35344419 430.27742772 361.72167828 430.31786346 372.09006596 C430.35227992 380.92569545 430.3660561 389.76105835 430.35343932 398.59675099 C430.34763894 403.09936748 430.35128961 407.60142101 430.38160896 412.10395145 C430.55505068 439.32838923 428.49759531 462.32682867 408.67635536 483.09515858 C408.00862099 483.7680492 407.34088661 484.44093983 406.65291786 485.13422108 C405.38448036 486.46453358 405.38448036 486.46453358 404.09041786 487.82172108 C403.28604286 488.58484608 402.48166786 489.34797108 401.65291786 490.13422108 C401.12955849 490.6524242 400.60619911 491.17062733 400.06698036 491.70453358 C383.80609162 507.00486349 362.58265194 512.45375178 340.81511879 512.40164661 C339.32471126 512.40538858 337.83430569 512.40999227 336.34390318 512.41537726 C332.26999402 512.42755535 328.19616731 512.42735295 324.12224412 512.42498851 C319.71987866 512.42457902 315.31753917 512.43563212 310.91518593 512.44510365 C302.29779857 512.4616865 293.68043859 512.46721198 285.06303661 512.4683284 C278.05444556 512.46928024 271.04586351 512.4733973 264.03727531 512.47972965 C244.14521756 512.49733526 224.25318134 512.50656968 204.36111574 512.5050687 C203.28968095 512.50498879 202.21824616 512.50490888 201.11434364 512.50482655 C200.04159308 512.50474478 198.96884251 512.50466302 197.86358435 512.50457878 C180.48650223 512.50376625 163.10950686 512.52289748 145.73244981 512.55110328 C127.86881377 512.57986891 110.00521998 512.59364152 92.1415602 512.59191573 C82.12095959 512.59125306 72.10044991 512.59669114 62.07987022 512.61827183 C53.54665431 512.63653216 45.01357055 512.6407913 36.48034351 512.62725298 C32.13197715 512.62074753 27.78386395 512.62051777 23.43552208 512.63795948 C19.44418447 512.65380359 15.45329836 512.65071256 11.461971 512.63339122 C10.02861444 512.63034602 8.59522322 512.63385854 7.1619076 512.64511137 C-14.05629284 512.80047741 -32.54237239 505.88262158 -49.34708214 493.13422108 C-50.02383995 492.6314867 -50.70059776 492.12875233 -51.39786339 491.61078358 C-67.46635527 478.82986819 -78.69335263 457.40472599 -81.34708214 437.13422108 C-82.25316731 428.06393123 -82.4920225 419.05294108 -82.48079491 409.94290638 C-82.48266806 408.55929427 -82.48497075 407.1756827 -82.48766023 405.79207194 C-82.4937224 402.0271902 -82.4936513 398.26233084 -82.49246585 394.49744534 C-82.49226042 390.42228597 -82.49779413 386.34713351 -82.50252342 382.27197742 C-82.51079988 374.30170601 -82.5135769 366.331442 -82.5141358 358.36116664 C-82.5146124 351.87660821 -82.51667432 345.39205221 -82.51983643 338.90749454 C-82.52863488 320.48713729 -82.53325708 302.06678585 -82.53250595 283.64642648 C-82.532466 282.65513796 -82.53242604 281.66384943 -82.53238487 280.64252186 C-82.53234399 279.65001071 -82.53230311 278.65749957 -82.53226099 277.63491233 C-82.53185478 261.55984664 -82.54142029 245.48480441 -82.55552324 229.4097455 C-82.56991901 212.86924902 -82.57679166 196.32876395 -82.57592946 179.78826106 C-82.57559859 170.51602189 -82.57829724 161.24380732 -82.58910751 151.97157383 C-82.59825476 144.0757136 -82.60035332 136.1798891 -82.59359809 128.28402583 C-82.59035404 124.26342761 -82.59019871 120.24289778 -82.59895134 116.22230625 C-82.68664561 73.22587491 -82.68664561 73.22587491 -77.72208214 59.82172108 C-77.46338341 59.09082264 -77.20468468 58.3599242 -76.93814659 57.60687733 C-72.58210424 45.8300469 -66.21507319 36.07069083 -57.34708214 27.13422108 C-56.50145714 26.24734608 -55.65583214 25.36047108 -54.78458214 24.44672108 C-53.98020714 23.68359608 -53.17583214 22.92047108 -52.34708214 22.13422108 C-51.82372276 21.61601795 -51.30036339 21.09781483 -50.76114464 20.56390858 C-37.59853802 8.17883991 -18.12420557 0.02977483 0 0 Z " fill="#A13ACC" transform="translate(82.34708213806152,-0.13422107696533203)"/>
<path d="M0 0 C1.43817806 0.30347049 2.87542039 0.61137766 4.31225586 0.92114258 C5.11271835 1.09212967 5.91318085 1.26311676 6.73789978 1.43928528 C20.70195276 4.90060411 29.92369912 16.2899084 37 28 C40.57817709 35.08579857 42.42298508 42.46936436 43.421875 50.3125 C43.64617187 52.045 43.64617187 52.045 43.875 53.8125 C43.99617187 54.89144531 44.11734375 55.97039062 44.2421875 57.08203125 C45.12937189 60.49814845 46.29492909 61.79377296 49 64 C52.70487832 65.85243916 56.95614188 65.4585162 61 65 C65.16668945 62.65623719 66.50863644 60.43501565 68 56 C69.94435518 40.6976722 64.30391532 24.03649677 56.21875 11.1640625 C55.8165625 10.44992188 55.414375 9.73578125 55 9 C55.33 8.34 55.66 7.68 56 7 C82.09382316 28.08894772 107.36906307 50.03111744 132 72.8125 C133.35567062 74.06436836 133.35567062 74.06436836 134.73872852 75.34152699 C177.54477053 114.9730583 215.90407899 152.25410861 218.79861569 213.2002849 C219.22961375 225.12911498 218.69721503 236.97513014 217.875 248.875 C217.81630234 249.76687531 217.75760468 250.65875062 217.6971283 251.57765245 C212.0334202 336.75782752 212.0334202 336.75782752 185 364 C183.7315625 365.3303125 183.7315625 365.3303125 182.4375 366.6875 C181.633125 367.450625 180.82875 368.21375 180 369 C179.47664063 369.51820313 178.95328125 370.03640625 178.4140625 370.5703125 C161.94193457 386.06940333 140.55400161 391.34106738 118.54443359 391.22705078 C117.00603238 391.22648564 115.46763064 391.22680524 113.92922974 391.22793579 C109.78114579 391.22850629 105.63317907 391.21680141 101.4851222 391.20278788 C97.13963393 391.19022965 92.79414254 391.18910602 88.44863892 391.18673706 C80.2324418 391.18053719 72.01629833 391.1641467 63.80012476 391.14403808 C54.4409491 391.12163245 45.08177079 391.11067395 35.72257495 391.10064721 C16.4816863 391.07977906 -2.75915253 391.0446323 -22 391 C-22.29132813 390.360625 -22.58265625 389.72125 -22.8828125 389.0625 C-24.26612246 386.50869699 -25.41561077 386.21618317 -28 385 C-30.25 383 -30.25 383 -32 381 C-32 380.34 -32 379.68 -32 379 C-32.680625 378.835 -33.36125 378.67 -34.0625 378.5 C-37.76139764 376.6112012 -39.68087112 374.1104315 -42.30859375 370.94921875 C-44.31640489 368.63536711 -46.60548498 366.90333245 -49 365 C-50.55654454 363.28157483 -52.04086372 361.51358895 -53.52734375 359.734375 C-56.24116272 356.53825929 -59.11476735 353.68094819 -62.4375 351.125 C-65.15866136 348.86842716 -67.26868968 346.43782796 -69.52734375 343.734375 C-72.24116272 340.53825929 -75.11476735 337.68094819 -78.4375 335.125 C-81.15866136 332.86842716 -83.26868968 330.43782796 -85.52734375 327.734375 C-88.22104838 324.56194832 -91.06661265 321.71232192 -94.375 319.1875 C-97.98940201 316.17549833 -101.17217486 312.76500062 -104 309 C-104 308.34 -104 307.68 -104 307 C-104.86625 306.62875 -104.86625 306.62875 -105.75 306.25 C-108.32939979 304.81700012 -110.06121592 303.21575324 -112 301 C-112 300.34 -112 299.68 -112 299 C-112.99 298.67 -113.98 298.34 -115 298 C-116.37849103 296.71340837 -117.70529025 295.37086915 -119 294 C-120.2375 292.7934375 -120.2375 292.7934375 -121.5 291.5625 C-123.85157222 289.15213847 -125.94467736 286.66430713 -128 284 C-124.34587043 285.39015799 -120.95217441 287.04458885 -117.5 288.875 C-98.47083788 298.47170445 -76.85642991 299.95612176 -56.54663086 293.75634766 C-35.43245511 286.70835112 -18.73006696 272.7792936 -8.67871094 252.73486328 C-8.33098633 252.0179834 -7.98326172 251.30110352 -7.625 250.5625 C-7.30305664 249.90749512 -6.98111328 249.25249023 -6.64941406 248.57763672 C-0.39007822 234.93625877 -0.55571061 221.19420206 -0.56762695 206.50268555 C-0.55859787 204.24463366 -0.54826786 201.98658667 -0.53674316 199.72854614 C-0.50928181 193.63238982 -0.49990342 187.53632678 -0.49388909 181.44011664 C-0.48447708 175.05662357 -0.45827144 168.6731994 -0.43388367 162.28974915 C-0.39523778 151.58648227 -0.36685267 140.88324546 -0.34643555 130.17993164 C-0.32538927 119.16167529 -0.29808254 108.14346339 -0.26245117 97.12524414 C-0.26025235 96.44463756 -0.25805352 95.76403098 -0.25578807 95.06279995 C-0.2447175 91.64796555 -0.23352487 88.23313155 -0.22227156 84.81829774 C-0.12925869 56.54557131 -0.05780196 28.27281885 0 0 Z " fill="#7628A0" transform="translate(304,121)"/>
<path d="M0 0 C1.81628236 0.99866918 3.61668919 2.02083574 5.41381836 3.0534668 C6.25170898 3.51366211 7.08959961 3.97385742 7.95288086 4.44799805 C25.31161273 14.8947985 37.2573557 33.66671258 42.44897461 52.88549805 C44.29105841 61.34194785 46.11707848 70.12297696 43.22631836 78.4909668 C41.08457373 81.51895058 39.68619037 83.24321845 36.41381836 85.0534668 C31.82368237 85.72648509 27.81996128 85.59198962 23.47631836 83.9284668 C19.1168401 79.96530474 18.06171049 75.16729721 17.47631836 69.4909668 C15.90585362 57.45918046 12.54531116 47.90404475 5.41381836 38.0534668 C4.65069336 36.9809668 3.88756836 35.9084668 3.10131836 34.8034668 C-4.68378677 26.83731271 -14.14143876 22.53504776 -24.58618164 19.0534668 C-24.58249447 20.2198446 -24.5788073 21.3862224 -24.57500839 22.58794498 C-24.48821977 50.32767329 -24.42234114 78.06739097 -24.38192032 105.80722675 C-24.376918 109.22776729 -24.37174066 112.64830754 -24.36645508 116.06884766 C-24.36540584 116.74976378 -24.36435659 117.43067991 -24.36327556 118.13222986 C-24.3459101 129.13140241 -24.31439392 140.13049063 -24.27757046 151.12961329 C-24.2400532 162.43093189 -24.21822215 173.73220865 -24.20982766 185.03359264 C-24.20462699 191.37502899 -24.19246027 197.71627458 -24.16326141 204.05764961 C-24.13596145 210.03547728 -24.12776605 216.01303693 -24.13375092 221.99092102 C-24.13265718 224.17610064 -24.12479087 226.36128992 -24.10935974 228.54641533 C-24.00613722 243.92733484 -25.0429643 257.65515454 -32.46118164 271.4909668 C-32.80995361 272.16144043 -33.15872559 272.83191406 -33.51806641 273.52270508 C-36.11691366 278.41514384 -38.94481897 282.86413207 -42.58618164 287.0534668 C-43.24102539 287.85010742 -43.89586914 288.64674805 -44.57055664 289.4675293 C-57.56944169 304.72508587 -77.10020637 315.35980755 -97.21264648 317.30786133 C-119.68893287 318.60558718 -141.13749624 313.20268608 -158.26855469 298.04492188 C-160.76505054 295.7692654 -163.18011436 293.42496415 -165.58618164 291.0534668 C-166.59165039 290.06733398 -166.59165039 290.06733398 -167.61743164 289.0612793 C-181.91918754 273.91441964 -188.19620254 252.12527805 -187.83618164 231.6940918 C-186.38227487 210.52157442 -177.50937283 192.00238763 -162.58618164 177.0534668 C-161.90040039 176.35608398 -161.21461914 175.65870117 -160.50805664 174.94018555 C-145.10179832 160.24717993 -124.54672931 153.64507903 -103.58056641 153.68261719 C-85.3590231 154.13810812 -68.82896611 160.86090697 -54.58618164 172.0534668 C-53.59618164 172.7134668 -52.60618164 173.3734668 -51.58618164 174.0534668 C-51.58471508 173.16832366 -51.58324852 172.28318052 -51.58173752 171.37121487 C-51.54467935 149.82969984 -51.48567771 128.28834228 -51.4022789 106.74695492 C-51.36247643 96.32967306 -51.33009005 85.91246688 -51.31518555 75.49511719 C-51.30217532 66.41492058 -51.27522667 57.33489039 -51.23156857 48.2547875 C-51.20893968 43.44729982 -51.19327182 38.64001752 -51.19429779 33.83247185 C-51.19504356 29.30568073 -51.17712636 24.77934387 -51.14501381 20.25267029 C-51.13650847 18.59308507 -51.1347692 16.93344893 -51.14037895 15.27385139 C-51.14703118 13.00303837 -51.1290715 10.73366551 -51.10516357 8.46299744 C-51.09963282 6.55903403 -51.09963282 6.55903403 -51.09399033 4.61660671 C-50.34250516 -0.65633732 -48.38642853 -4.55134186 -44.08618164 -7.8840332 C-29.78532133 -12.2253658 -12.74659684 -6.74928382 0 0 Z " fill="#FDFBFD" transform="translate(328.586181640625,101.946533203125)"/>
<path d="M0 0 C12.50947928 10.62909564 19.78452559 23.8145401 21.12109375 40.1875 C21.7088229 56.85615173 16.59472865 71.33516836 5.19921875 83.73828125 C-7.51514412 95.73668971 -21.8851451 100.1433733 -39.00390625 99.828125 C-51.70844541 99.24297093 -65.46267736 92.86680082 -74.17578125 83.55078125 C-80.86619205 75.84983965 -85.11754288 68.26518547 -88.17578125 58.55078125 C-88.42070312 57.844375 -88.665625 57.13796875 -88.91796875 56.41015625 C-92.7180275 44.02092362 -89.82101188 30.75962402 -84.42578125 19.36328125 C-76.628294 4.75725636 -64.71196262 -5.29433271 -48.7578125 -10.19140625 C-31.9139548 -14.20315702 -13.6132025 -10.88806187 0 0 Z " fill="#76299F" transform="translate(257.17578125,293.44921875)"/>
<path d="M0 0 C1.5631897 0.00785522 1.5631897 0.00785522 3.15795898 0.01586914 C4.28266602 0.0190918 5.40737305 0.02231445 6.56616211 0.02563477 C7.75016602 0.03401367 8.93416992 0.04239258 10.15405273 0.05102539 C11.34192383 0.05553711 12.52979492 0.06004883 13.75366211 0.06469727 C16.69967499 0.07652864 19.64558954 0.09301252 22.59155273 0.11352539 C22.59155273 0.44352539 22.59155273 0.77352539 22.59155273 1.11352539 C21.46620117 1.1509082 20.34084961 1.18829102 19.18139648 1.22680664 C1.43558569 1.93461676 -13.90930404 5.0162022 -29.40844727 14.11352539 C-30.06844727 14.11352539 -30.72844727 14.11352539 -31.40844727 14.11352539 C-31.40844727 13.45352539 -31.40844727 12.79352539 -31.40844727 12.11352539 C-29.42844727 11.45352539 -27.44844727 10.79352539 -25.40844727 10.11352539 C-25.40844727 9.45352539 -25.40844727 8.79352539 -25.40844727 8.11352539 C-24.08844727 8.11352539 -22.76844727 8.11352539 -21.40844727 8.11352539 C-21.40844727 7.45352539 -21.40844727 6.79352539 -21.40844727 6.11352539 C-20.86841064 5.96729736 -20.32837402 5.82106934 -19.77197266 5.67041016 C-17.33733805 5.00908984 -14.90414048 4.34262851 -12.47094727 3.67602539 C-11.62081055 3.44592773 -10.77067383 3.21583008 -9.89477539 2.97875977 C-9.08588867 2.75639648 -8.27700195 2.5340332 -7.44360352 2.30493164 C-6.69473877 2.1006958 -5.94587402 1.89645996 -5.17431641 1.68603516 C-2.73005245 0.89358403 -2.75680515 0.12994571 0 0 Z " fill="#9B4DBB" transform="translate(209.408447265625,254.886474609375)"/>
<path d="M0 0 C0.33 0.99 0.66 1.98 1 3 C-0.75 5.375 -0.75 5.375 -3 8 C-3.495 8.886875 -3.99 9.77375 -4.5 10.6875 C-6.17334654 13.26724258 -7.31067196 13.69871224 -10 15 C-10.309375 15.61875 -10.61875 16.2375 -10.9375 16.875 C-12.36898744 19.73797489 -14.45441327 21.12430451 -17 23 C-17.33 22.01 -17.66 21.02 -18 20 C-17.27296875 19.41605469 -17.27296875 19.41605469 -16.53125 18.8203125 C-9.98190248 13.3541263 -4.72776706 7.09165058 0 0 Z " fill="#773898" transform="translate(292,380)"/>
<path d="M0 0 C4.30764815 1.56641751 8.06171464 3.68336156 12 6 C12 6.66 12 7.32 12 8 C8.76761586 7.92303847 6.66772205 7.62561345 4.265625 5.375 C2.78148327 3.62229929 1.36155666 1.84920638 0 0 Z " fill="#79359B" transform="translate(176,405)"/>
<path d="M0 0 C4.21422242 2.88341534 5.76075855 5.04303419 7 10 C6.01 10.495 6.01 10.495 5 11 C4.16151196 9.54462432 3.32936066 8.08559627 2.5 6.625 C1.80390625 5.40683594 1.80390625 5.40683594 1.09375 4.1640625 C0 2 0 2 0 0 Z " fill="#7E3B9F" transform="translate(359,128)"/>
<path d="M0 0 C1.98 0.66 3.96 1.32 6 2 C6 2.99 6 3.98 6 5 C6.66 5 7.32 5 8 5 C8.33 6.32 8.66 7.64 9 9 C7.87105124 8.06725891 6.74699124 7.12859878 5.625 6.1875 C4.99851562 5.66542969 4.37203125 5.14335938 3.7265625 4.60546875 C2 3 2 3 0 0 Z " fill="#A257C2" transform="translate(346,114)"/>
<path d="M0 0 C3.26008643 3.16952847 6.22237877 6.39937989 9 10 C8.01 10 7.02 10 6 10 C4.39453125 8.3203125 4.39453125 8.3203125 2.8125 6.125 C2.01779297 5.04605469 2.01779297 5.04605469 1.20703125 3.9453125 C0 2 0 2 0 0 Z " fill="#A058C0" transform="translate(156,385)"/>
<path d="M0 0 C0.33 0.66 0.66 1.32 1 2 C-1.97 4.31 -4.94 6.62 -8 9 C-8.66 8.67 -9.32 8.34 -10 8 C-8.71064081 6.85157077 -7.41843421 5.70633773 -6.125 4.5625 C-5.04605469 3.60537109 -5.04605469 3.60537109 -3.9453125 2.62890625 C-2 1 -2 1 0 0 Z " fill="#703593" transform="translate(194,290)"/>
<path d="M0 0 C2.31 1.65 4.62 3.3 7 5 C6.67 5.66 6.34 6.32 6 7 C5.01 7 4.02 7 3 7 C3 6.01 3 5.02 3 4 C2.34 4 1.68 4 1 4 C0.67 2.68 0.34 1.36 0 0 Z " fill="#9E54C1" transform="translate(166,396)"/>
</svg>
